<svg xmlns="http://www.w3.org/2000/svg" width="96" height="96" viewBox="0 0 96 96" role="img" aria-label="CredBusiness">
  <defs>
    <linearGradient id="cb-bg" x1="12" y1="8" x2="84" y2="88" gradientUnits="userSpaceOnUse">
      <stop stop-color="#1E63F0"/>
      <stop offset="0.55" stop-color="#1746C2"/>
      <stop offset="1" stop-color="#0A1F44"/>
    </linearGradient>
  </defs>
  <rect width="96" height="96" rx="22" fill="url(#cb-bg)"/>
  <path d="M25 61.5V34.5C25 30.9 27.9 28 31.5 28H49C57.8 28 64.5 34.6 64.5 43.1V52.9C64.5 61.4 57.8 68 49 68H31.5C27.9 68 25 65.1 25 61.5Z" fill="none" stroke="white" stroke-width="7" stroke-linecap="round" stroke-linejoin="round"/>
  <path d="M48 28H57.5C66.2 28 72 33.7 72 41C72 48.3 66.2 54 57.5 54H48" fill="none" stroke="#9DC3FF" stroke-width="7" stroke-linecap="round" stroke-linejoin="round"/>
  <path d="M48 54H60C67.2 54 72 58.3 72 64C72 69.7 67.2 74 60 74H48" fill="none" stroke="#9DC3FF" stroke-width="7" stroke-linecap="round" stroke-linejoin="round"/>
</svg>
